HIERARCHY
ROOT Hips
{
  OFFSET -102.467 93.6631 130.069
  CHANNELS 6 Xposition Yposition Zposition Zrotation Xrotation Yrotation
  JOINT LeftUpLeg
  {
    OFFSET 8.64259 1.95398 -2.38835
    CHANNELS 3 Zrotation Xrotation Yrotation
    JOINT LeftLeg
    {
      OFFSET 43.7702 0 0
      CHANNELS 3 Zrotation Xrotation Yrotation
      JOINT LeftFoot
      {
        OFFSET 40.6238 0 0
        CHANNELS 3 Zrotation Xrotation Yrotation
        JOINT LeftToeBase
        {
          OFFSET 12.7242 0 0
          CHANNELS 3 Zrotation Xrotation Yrotation
          End Site
          {
            OFFSET 0 0 0
          }
        }
      }
    }
  }
  JOINT RightUpLeg
  {
    OFFSET -8.2249 1.95398 -2.59336
    CHANNELS 3 Zrotation Xrotation Yrotation
    JOINT RightLeg
    {
      OFFSET 43.5653 0 0
      CHANNELS 3 Zrotation Xrotation Yrotation
      JOINT RightFoot
      {
        OFFSET 40.6238 0 0
        CHANNELS 3 Zrotation Xrotation Yrotation
        JOINT RightToeBase
        {
          OFFSET 12.7242 0 0
          CHANNELS 3 Zrotation Xrotation Yrotation
          End Site
          {
            OFFSET 0 0 0
          }
        }
      }
    }
  }
  JOINT Spine
  {
    OFFSET 0.165834 0.87714 6.61349
    CHANNELS 3 Zrotation Xrotation Yrotation
    JOINT Spine1
    {
      OFFSET 7.38963 1.71661e-005 0
      CHANNELS 3 Zrotation Xrotation Yrotation
      JOINT Spine2
      {
        OFFSET 11.9445 1.14441e-005 0
        CHANNELS 3 Zrotation Xrotation Yrotation
        JOINT Spine3
        {
          OFFSET 14.7254 4.19617e-005 0
          CHANNELS 3 Zrotation Xrotation Yrotation
          JOINT Spine4
          {
            OFFSET 10.9679 0 0
            CHANNELS 3 Zrotation Xrotation Yrotation
            JOINT RightShoulder
            {
              OFFSET 2.46616 -1.6653 3.69651
              CHANNELS 3 Zrotation Xrotation Yrotation
              JOINT RightArm
              {
                OFFSET 13.0012 0 0
                CHANNELS 3 Zrotation Xrotation Yrotation
                JOINT RightForeArm
                {
                  OFFSET 28.7848 1.52588e-005 0
                  CHANNELS 3 Zrotation Xrotation Yrotation
                  JOINT RightHand
                  {
                    OFFSET 26.5688 1.52588e-005 0
                    CHANNELS 3 Zrotation Xrotation Yrotation
                    End Site
                    {
                      OFFSET 0 0 0
                    }
                  }
                }
              }
            }
            JOINT LeftShoulder
            {
              OFFSET 2.38034 -1.29275 -3.7523
              CHANNELS 3 Zrotation Xrotation Yrotation
              JOINT LeftArm
              {
                OFFSET 16.3182 6.10351e-005 0
                CHANNELS 3 Zrotation Xrotation Yrotation
                JOINT LeftForeArm
                {
                  OFFSET 27.0901 0 0
                  CHANNELS 3 Zrotation Xrotation Yrotation
                  JOINT LeftHand
                  {
                    OFFSET 24.5451 1.52588e-005 0
                    CHANNELS 3 Zrotation Xrotation Yrotation
                    End Site
                    {
                      OFFSET 0 0 0
                    }
                  }
                }
              }
            }
            JOINT Neck
            {
              OFFSET 5.0226 -0.0266342 0
              CHANNELS 3 Zrotation Xrotation Yrotation
              JOINT Head
              {
                OFFSET 6.69363 2.86102e-005 0
                CHANNELS 3 Zrotation Xrotation Yrotation
                End Site
                {
                  OFFSET 0 0 0
                }
              }
            }
          }
        }
      }
    }
  }
}
MOTION
Frames:	9
Frame Time:	0.0416667
-150.446 89.3564 159.222 -87.59 -38.8955 -80.2717 -177.537 40.3581 94.2945 -19.9938 9.88895 -0.360501 38.5231 -11.1493 0.0938227 42.6425 -2.37124 -4.00481 177.401 -17.9343 88.3371 -73.8754 -21.8045 -4.93408 43.5399 11.4834 10.245 33.9597 -0.549358 3.48376 1.33487 8.65046 -90.7605 9.58745 2.31825 -1.68739 -2.08272 2.24177 -1.78781 -24.6312 2.71817 -0.912336 -4.6185 2.71817 -0.91234 101.174 -48.672 -83.7399 15.9889 -23.3461 -4.40501 -4.13969 8.0205 -69.8038 -7.80763 0.116632 -7.32253 -89.7165 -55.0122 79.8879 -28.0865 24.802 29.6918 -4.16804 23.2158 -21.4602 6.06206 -0.421628 -8.74979 -1.41376 -0.41533 -9.40088 -14.8168 -0.172881 10.2848 
-168.764 86.6355 178.308 -93.0555 -43.8306 -89.9441 -172.085 34.9377 82.1402 -47.365 19.8966 -2.97675 53.6216 5.34387 27.4384 41.6787 -1.54651 -0.208236 176.157 -2.46313 82.8204 -114.23 -20.3475 -3.61032 39.477 10.8932 3.38764 36.7741 -2.49539 -2.40718 0.485677 8.85311 -89.9588 9.16782 0.987121 0.0111995 -2.50276 0.986665 -0.0322744 -25.0407 0.938125 0.307389 -5.02807 0.938137 0.307378 102.317 -52.8765 -81.9405 24.0356 -13.4622 5.55867 0.785111 6.41897 -52.3897 -11.6264 0.00620736 -5.43988 -86.5962 -57.3626 84.6604 -16.4092 24.7934 14.0515 -0.573749 19.355 -25.2589 12.5718 -0.380758 -6.58249 -1.75634 0.719661 -11.6126 -13.858 1.18367 11.4216 
-185.645 84.6711 195.477 -95.1522 -51.1181 -97.9679 -174.804 24.2686 76.1789 -62.4482 20.8348 -1.29171 60.5424 9.4804 23.5424 59.7874 -1.74976 5.84124 -175.371 27.6194 81.112 -127.634 -24.4148 -2.64057 38.4995 13.7121 10.8911 31.9238 0.292519 5.32707 -1.34736 8.96009 -89.0423 8.96859 -2.26061 2.05047 -2.70198 -2.16818 2.14797 -25.249 -2.77226 1.276 -5.23634 -2.77224 1.27601 93.9497 -57.2221 -93.9105 25.2462 -6.44771 7.16057 5.03722 13.8364 -18.1345 -13.5067 -0.218246 -3.03609 -77.8348 -58.0616 96.9122 -4.01151 13.6034 -11.4363 6.70477 15.5842 -30.9504 18.3202 -0.301638 -5.46946 -8.40914 2.41381 -16.8849 -2.67007 3.84539 22.3006 
-203.882 87.3323 214.482 -103.126 -58.1237 -100.69 -173.398 0.768096 89.3554 -55.1951 26.4275 1.90915 60.2058 3.96104 10.072 58.8912 -3.36688 -0.0820092 -178.867 40.8221 81.7528 -103.727 -22.1596 -2.96405 46.5652 8.91729 5.44968 35.261 -0.858722 3.36281 -2.91162 9.24221 -89.3628 8.44782 -5.52893 1.59498 -3.21366 -5.45334 1.8373 -25.8374 -5.75252 -0.14532 -5.82478 -5.7525 -0.145307 85.1863 -55.1381 -106.864 28.6156 -2.3886 17.2007 -0.203023 -1.67532 -6.08508 -8.54535 -0.392506 0.0112927 -71.9634 -48.8161 105.928 -9.92071 4.6001 -21.1018 15.5055 5.72726 -54.772 18.5712 -0.648428 -7.40726 -19.6156 4.38714 -17.5095 14.8325 8.22156 26.1373 
-221.968 90.91 234.039 -107.502 -67.2874 -105.842 -176.824 -13.2548 95.3248 -46.1774 25.3954 8.46594 46.7644 -6.71463 0.836551 53.8621 -1.08 6.52937 174.818 37.937 77.3716 -56.4524 -9.34844 -0.900263 52.0966 8.51759 11.6577 30.9873 0.299889 4.6832 -4.61178 9.23884 -89.3977 8.47135 -8.9371 1.74699 -3.17031 -8.85153 2.14158 -25.9538 -9.04537 -1.04235 -5.94112 -9.04537 -1.04235 79.2816 -49.9802 -117.242 31.0369 -1.11114 18.5056 1.48145 0.364719 -0.648521 -7.93748 0.203407 -8.75661 -68.9419 -35.7229 113.067 -14.8848 -0.627008 -22.4846 22.9381 -3.9368 -80.9554 8.56873 -0.651076 -10.0487 -27.6079 7.07561 -17.4663 27.0404 12.1797 24.5191 
-239.305 89.8227 253.142 -98.7279 -65.1983 -106.797 176.144 -10.6116 83.3852 -63.3465 9.36079 5.55182 48.542 -3.59487 2.69187 47.9216 -0.154167 8.86943 176.821 35.0211 69.6151 -14.9486 -10.3841 -0.446353 36.322 15.7697 19.377 58.5185 -5.13181 5.20535 -4.88676 9.22377 -88.7288 8.55755 -9.18915 3.09569 -3.08535 -9.04401 3.49988 -25.8834 -9.69093 0.165747 -5.87071 -9.69095 0.165721 77.9878 -42.8116 -122.465 33.5137 -4.20203 6.72421 4.69491 8.54184 0.00256209 -6.91826 0.478075 -14.2591 -66.1973 -29.5648 119.767 -17.5309 -17.6514 -20.1025 20.1605 -3.0529 -92.4896 17.2829 0.00223393 -3.83441 -7.33269 6.30822 -24.4653 11.8001 11.8561 26.2322 
-253.793 83.3156 272.466 -94.8586 -44.8065 -138.939 -173.016 -4.58843 45.765 -89.2226 3.93492 -7.20696 44.936 -0.0951335 14.0249 48.2279 -0.802733 6.23483 -159.378 53.8326 32.6141 -46.0552 -33.4951 -7.89717 43.6597 14.5007 18.2494 39.7631 0.252543 10.0279 -4.56212 9.53611 -84.4523 7.88685 -6.69735 11.2951 -3.81957 -6.19764 11.5746 -26.2206 -9.76756 8.78354 -6.208 -9.76755 8.78353 80.2524 -35.3356 -122.603 31.5221 -4.41336 -11.2811 3.20251 8.3912 0.00145888 -5.28948 0.233073 -11.6926 -65.7787 -26.5153 121.578 -26.1541 -33.1673 -21.046 18.1268 3.05772 -71.5792 14.0112 -0.563116 -7.66002 49.7488 -10.4953 -33.5437 -41.0596 0.743459 28.8931 
-270.333 80.6282 288.438 -95.6628 -38.7013 -149.413 -153.431 1.84508 38.6965 -104.92 13.3302 -5.02573 41.2266 0.350177 16.73 53.0912 -1.08704 6.23998 -143.036 44.0927 22.603 -91.1137 -38.8976 -22.5991 62.1382 -0.297259 -7.93462 43.1075 -3.43972 -0.0616097 -4.97461 10.8801 -83.0421 5.31453 -7.06456 13.7872 -6.41375 -6.45723 14.0775 -28.6895 -10.8578 11.0724 -8.67682 -10.8578 11.0724 83.387 -29.2852 -120.25 30.3717 2.19527 -33.7119 -1.92202 -1.20913 0.726396 -4.51227 -0.0483646 -4.1649 -70.8737 -15.3938 114.719 -41.4364 -32.7119 -16.3268 20.6194 8.51082 -43.9632 12.0606 -0.7146 -9.33582 81.2156 -24.7528 -33.1867 -66.9551 -5.18829 26.5956 
-285.125 83.6167 303.919 -102.201 -36.7468 -163.153 -151.106 13.5441 30.5361 -84.1054 13.4375 -13.9147 44.9327 0.20117 14.8296 52.0468 -1.37548 4.46051 -156.562 32.6304 10.6888 -94.6656 -41.2373 -24.7657 68.3739 -2.34953 -2.2933 58.1585 -4.38574 6.46795 -6.10071 11.5192 -81.4313 4.16429 -8.73657 16.8264 -7.59083 -7.99873 17.1812 -29.7489 -13.3475 13.5061 -9.73624 -13.3475 13.5061 85.019 -23.5433 -120.431 35.1389 5.47853 -50.4674 -3.19685 7.85982 -8.63499 -6.77015 0.0660187 -5.87365 -74.7134 0.737098 108.339 -60.0349 -21.4039 -9.16129 19.9225 11.5442 -26.4658 0.640643 -0.19987 -7.87005 71.6151 -32.4121 -50.5367 -62.9815 -2.21219 33.1858 
